<?xml version="1.0" encoding="UTF-8"?>
<svg width="106px" height="42px" viewBox="0 0 106 42" version="1.1" xmlns="http://www.w3.org/2000/svg" xmlns:xlink="http://www.w3.org/1999/xlink">
    <!-- Generator: Sketch 52 (66869) - http://www.bohemiancoding.com/sketch -->
    <title>Jive</title>
    <desc>Created with Sketch.</desc>
    <g id="Page-1" stroke="none" stroke-width="1" fill="none" fill-rule="evenodd">
        <g id="Desktop-HD-Copy-11" transform="translate(-81.000000, -29.000000)" fill="#FFFFFF">
            <path d="M106.543559,58.4169674 C106.543559,62.3252911 105.40074,65.3611755 103.115069,67.5247118 C100.829398,69.6882481 97.7149988,70.77 93.7717794,70.77 C88.6421047,70.77 84.3848874,68.7984199 81,64.8552005 L85.3968421,58.3122807 C86.6879847,59.6383191 88.0140032,60.6590044 89.3749373,61.3743672 C90.7358715,62.08973 91.9746519,62.447406 93.0913158,62.447406 C94.2777712,62.447406 95.2112184,62.0810062 95.8916855,61.3481955 C96.5721525,60.6153848 96.912381,59.5685281 96.912381,58.207594 L96.912381,50.2104391 L84.3499749,50.2104391 L84.3499749,42.306592 L106.543559,42.306592 L106.543559,58.4169674 Z M100.747101,29 C102.177827,29 103.35554,29.4623617 104.280278,30.387099 C105.205015,31.3118363 105.667377,32.5069977 105.667377,33.972619 C105.667377,35.4033447 105.205015,36.5897823 104.280278,37.5319674 C103.35554,38.4741526 102.177827,38.9452381 100.747101,38.9452381 C99.3163753,38.9452381 98.1386615,38.4741526 97.2139242,37.5319674 C96.2891869,36.5897823 95.8268252,35.4033447 95.8268252,33.972619 C95.8268252,32.5069977 96.2891869,31.3118363 97.2139242,30.387099 C98.1386615,29.4623617 99.3163753,29 100.747101,29 Z M125.596541,42.0334962 L135.175376,42.0334962 L141.090175,61.714599 L147.057318,42.0334962 L156.374436,42.0334962 L145.748734,70.3512531 L136.1699,70.3512531 L125.596541,42.0334962 Z M171.972757,41.7194361 C176.578995,41.7194361 180.120861,43.0803498 182.598459,45.802218 C185.076057,48.5240863 186.314837,52.2578752 186.314837,57.0036967 C186.314837,57.7365074 186.297389,58.294831 186.262494,58.6786842 L166.581391,58.6786842 C167.035036,60.2838886 167.820178,61.5139452 168.936842,62.368891 C170.053506,63.2238368 171.41442,63.6513033 173.019624,63.6513033 C174.240975,63.6513033 175.418689,63.4070367 176.552801,62.9184962 C177.686913,62.4299558 178.725045,61.7146037 179.667231,60.7724185 L184.535163,65.6403509 C183.069542,67.280451 181.298609,68.5279552 179.222312,69.382901 C177.146015,70.2378468 174.799311,70.6653133 172.18213,70.6653133 C169.1462,70.6653133 166.494163,70.0720945 164.22594,68.8856391 C161.957716,67.6991837 160.221679,66.024213 159.017776,63.8606767 C157.813872,61.6971404 157.21193,59.1846843 157.21193,56.3232331 C157.21193,53.4268861 157.822596,50.870811 159.043947,48.6549311 C160.265299,46.4390512 161.992612,44.7291852 164.22594,43.525282 C166.459268,42.3213787 169.041514,41.7194361 171.972757,41.7194361 Z M177.259436,53.7060652 C177.259436,52.0659651 176.779627,50.7486704 175.819994,49.7541416 C174.860361,48.7596128 173.595409,48.2623559 172.0251,48.2623559 C170.559479,48.2623559 169.329422,48.750889 168.334893,49.7279699 C167.340365,50.7050508 166.686079,52.0310693 166.372018,53.7060652 L177.259436,53.7060652 Z" id="Jive"></path>
        </g>
    </g>
</svg>