<?xml version="1.0" encoding="UTF-8"?>
<svg width="22px" height="24px" viewBox="0 0 22 24" version="1.1" xmlns="http://www.w3.org/2000/svg" xmlns:xlink="http://www.w3.org/1999/xlink">
    <!-- Generator: Sketch 52 (66869) - http://www.bohemiancoding.com/sketch -->
    <title>Group 4</title>
    <desc>Created with Sketch.</desc>
    <defs>
        <linearGradient x1="0%" y1="0%" x2="100%" y2="100%" id="linearGradient-1">
            <stop stop-color="#FFAB36" offset="0%"></stop>
            <stop stop-color="#FF2A59" offset="100%"></stop>
        </linearGradient>
    </defs>
    <g id="Page-1" stroke="none" stroke-width="1" fill="none" fill-rule="evenodd">
        <g id="Desktop-HD-Copy-11" transform="translate(-1071.000000, -38.000000)">
            <g id="Group-7" transform="translate(1071.000000, 20.000000)">
                <g id="Group-4" transform="translate(0.000000, 19.000000)">
                    <g id="noun_Alarm_78788" opacity="0.5" fill="#000000">
                        <path d="M18.0140741,16.2237646 C17.5407407,15.7520091 17.2585185,15.1234938 17.2212346,14.4568346 L16.8251852,7.35490782 C16.8251852,4.37991934 14.2617284,1.92639671 10.9402469,1.53880412 C10.9619753,1.39311852 10.9296296,1.21716379 10.9296296,1.02668971 C10.9296296,0.527864198 10.5232099,0.122799177 10.0224691,0.122799177 C9.5217284,0.122799177 9.11530864,0.527864198 9.11530864,1.02668971 C9.11530864,1.2169177 9.08246914,1.39311852 9.10469136,1.53880412 C5.78271605,1.92639671 3.21975309,4.37967325 3.21975309,7.35490782 L2.8237037,14.4568346 C2.78641975,15.1232477 2.50395062,15.7520091 2.0308642,16.2237646 L0.0449382716,18.2030708 L0.0449382716,19.1072074 L20,19.1072074 L20,18.2030708 L18.0140741,16.2237646 Z M1.32790123,18.2030708 L2.67259259,16.8631078 C3.30469136,16.2336082 3.67950617,15.3964082 3.7291358,14.5067909 L4.12518519,7.40535638 L4.12691358,7.38050123 L4.12691358,7.35490782 C4.12691358,4.61370535 6.77185185,2.38289465 10.022716,2.38289465 C13.2735802,2.38289465 15.9185185,4.61395144 15.9185185,7.35515391 L15.9185185,7.38074733 L15.9192593,7.40560247 L16.3153086,14.507037 C16.3654321,15.3964082 16.7407407,16.2338543 17.3728395,16.8633539 L18.7175309,18.2033169 L1.32790123,18.2033169 L1.32790123,18.2030708 Z" id="Shape" fill-rule="nonzero"></path>
                        <path d="M10.022716,22.2711934 C11.2750617,22.2711934 12.2903704,21.2600074 12.2903704,20.0110979 L7.75506173,20.0110979 C7.75506173,21.2600074 8.77037037,22.2711934 10.022716,22.2711934" id="Path"></path>
                    </g>
                    <g id="Group-3" transform="translate(12.000000, 0.000000)">
                        <circle id="Oval" stroke="#FFFFFF" fill="url(#linearGradient-1)" cx="4.5" cy="4.5" r="4.5"></circle>
                        <path d="M3.94347126,4.13951724 C4.35190243,4.13951724 4.65209483,4.21643729 4.84405747,4.37027969 C5.03602012,4.5241221 5.132,4.73446099 5.132,5.00130268 C5.132,5.1701209 5.0918382,5.32191887 5.01151341,5.45670115 C4.93118861,5.59148343 4.81002252,5.69767394 4.64801149,5.77527586 C4.48600047,5.85287778 4.28655291,5.89167816 4.04966284,5.89167816 C3.84817013,5.89167816 3.65348753,5.86104628 3.4656092,5.79978161 C3.27773086,5.73851694 3.12252935,5.65342839 3,5.54451341 L3.18787739,5.22185441 C3.28590087,5.31443214 3.41115122,5.38862935 3.56363218,5.44444828 C3.71611315,5.5002672 3.87676033,5.52817625 4.04557854,5.52817625 C4.26068562,5.52817625 4.42745918,5.48256878 4.54590421,5.39135249 C4.66434925,5.3001362 4.72357088,5.17556656 4.72357088,5.01763985 C4.72357088,4.84609876 4.65822288,4.71608346 4.5275249,4.62759004 C4.39682693,4.53909662 4.17355458,4.49485057 3.85770115,4.49485057 L3.20829885,4.49485057 L3.35941762,3 L4.97271264,3 L4.97271264,3.35533333 L3.70249808,3.35533333 L3.62489655,4.13951724 L3.94347126,4.13951724 Z" id="5" fill="#FFFFFF"></path>
                    </g>
                </g>
            </g>
        </g>
    </g>
</svg>